PathFileType	4	(X/Y/Z)	D:\TRACE\spot_10-12-23\spot_arm_motion_2_5-platform.trc
DataRate	CameraRate	NumFrames	NumMarkers	Units	OrigDataRate	OrigDataStartFrame	OrigNumFrames
100.00	100.00	      60	5	mm	100.00	2626	      7000
Frame#	Time	Left_Front			Right_Front			Left_Aft			Right_Aft			Post			
		X1	Y1	Z1	X2	Y2	Z2	X3	Y3	Z3	X4	Y4	Z4	X5	Y5	Z5	

2626	26.250	-801.22235	18.01496	-638.61621	771.51630	22.49459	-631.70520	-718.23499	-2.89583	498.97916	699.15735	0.06277	585.24298	-18.00967	761.66040	-943.38855	
2627	26.260	-802.34778	16.90226	-639.22589	770.68134	21.27794	-632.11224	-719.19135	-2.03235	498.84454	698.21985	1.31898	584.97583	-19.12046	759.49774	-945.62482	
2628	26.270	-803.37482	15.44958	-639.52496	769.06158	19.65972	-632.55609	-720.23273	-1.08548	498.42545	697.10046	2.42730	584.55737	-20.43172	757.44250	-947.65686	
2629	26.280	-804.47858	13.93432	-639.73749	768.26672	18.51898	-632.77502	-721.34290	-0.02560	498.10599	695.96478	3.58062	584.26837	-21.62221	755.27692	-949.42786	
2630	26.290	-805.50354	12.48959	-640.03522	767.38208	16.93384	-633.10547	-722.33453	0.99103	497.92032	694.95300	4.64560	583.96594	-22.45154	753.21448	-951.35516	
2631	26.300	-806.53992	11.30995	-640.41376	766.17249	15.49458	-633.45166	-723.43677	2.00569	497.48932	693.67419	5.86988	583.63660	-23.50597	751.08008	-953.08417	
2632	26.310	-807.64001	9.75379	-640.80371	765.13458	14.16585	-633.90430	-724.43109	2.78119	497.31818	692.92139	7.00802	583.36548	-24.56305	749.04974	-955.17828	
2633	26.320	-808.53070	8.20589	-641.23907	764.13074	12.66541	-634.31769	-725.53125	3.79993	496.88077	691.79608	8.15814	582.95587	-25.59740	747.06775	-956.80121	
2634	26.330	-809.72839	6.92068	-641.46539	762.92682	11.35478	-634.59045	-726.55115	4.98023	496.67114	690.86469	9.31720	582.55756	-26.32214	744.90192	-958.68555	
2635	26.340	-810.58191	5.39109	-641.83282	762.05609	9.67169	-634.86841	-727.53406	5.82810	496.09830	689.75494	10.33604	582.22943	-27.51440	742.81354	-960.72247	
2636	26.350	-811.89069	4.34563	-642.23334	761.11499	8.50115	-635.16071	-728.69574	6.75719	495.67828	688.59900	11.53607	581.88898	-28.73351	740.62946	-962.64215	
2637	26.360	-812.64026	2.70762	-642.51300	759.95520	7.09560	-635.67572	-729.65723	7.71849	495.29108	687.95087	12.66058	581.57996	-29.61220	738.47986	-964.66388	
2638	26.370	-813.46454	1.01823	-642.80573	758.99738	5.52644	-635.89490	-730.45038	8.74179	495.13632	686.68835	13.97294	581.17053	-30.50303	736.31396	-966.33362	
2639	26.380	-814.71545	-0.12101	-643.00372	758.39594	4.07320	-636.19464	-731.35083	9.75252	494.69781	685.76819	14.92684	580.85901	-31.45444	734.22180	-968.36285	
2640	26.390	-815.62177	-1.45384	-643.54193	757.05933	2.74990	-636.50745	-732.46954	10.71179	494.35822	684.85474	16.07325	580.53363	-32.53104	732.30463	-970.40131	
2641	26.400	-816.48840	-2.99075	-643.83289	756.06635	1.33742	-636.81287	-733.33698	11.45605	493.96964	683.86578	17.10669	580.12189	-33.28537	730.03137	-972.19025	
2642	26.410	-817.52740	-4.39066	-644.12012	755.50061	-0.11545	-637.26538	-734.34039	12.59225	493.64563	683.10187	18.33336	579.94067	-34.04382	728.06927	-974.17194	
2643	26.420	-818.15826	-5.95689	-644.40887	754.47589	-1.25622	-637.48798	-734.96472	13.33047	493.63190	682.21643	19.52607	579.52618	-35.20528	725.94824	-976.00769	
2644	26.430	-818.99933	-7.24673	-644.74390	753.52710	-2.91830	-637.84863	-736.00867	14.52940	493.04321	681.06262	20.54399	579.04913	-35.83054	723.85254	-977.77234	
2645	26.440	-820.22241	-8.38566	-644.98267	752.95618	-3.99164	-638.02368	-736.82489	15.34543	492.63348	680.41571	21.56030	578.78772	-36.73328	721.76660	-979.51831	
2646	26.450	-820.84717	-9.73997	-645.35138	751.97321	-5.56166	-638.46643	-737.59979	16.27733	492.19809	679.57263	22.54374	578.39136	-37.73220	719.69031	-981.25348	
2647	26.460	-821.46771	-11.25884	-645.53058	751.20935	-6.84097	-638.65784	-738.55316	17.41726	491.78928	678.58167	23.81455	578.01831	-38.35219	717.79309	-983.09509	
2648	26.470	-822.33380	-12.46911	-645.76917	750.29980	-8.22388	-638.93341	-739.16406	18.09553	491.66864	678.22760	25.01704	577.67914	-39.18392	715.60303	-984.60706	
2649	26.480	-822.94238	-14.05996	-646.11438	749.66302	-9.52120	-639.20886	-740.11481	19.05078	491.20709	677.50818	26.13175	577.21948	-39.90223	713.60333	-986.42023	
2650	26.490	-823.64880	-15.45864	-646.49243	748.94666	-10.86327	-639.44763	-740.83215	19.80824	490.90152	676.04614	26.54844	576.96118	-40.55715	711.70441	-987.79065	
2651	26.500	-824.53400	-16.69440	-646.79901	748.24554	-12.04235	-639.89874	-741.43158	20.86912	490.61734	675.46057	27.59592	576.57452	-41.28611	709.72748	-989.74286	
2652	26.510	-825.16718	-17.91591	-647.00598	747.39911	-13.43865	-640.16870	-742.10767	21.69548	490.48721	675.31006	29.22849	576.22827	-41.97381	707.72693	-991.33417	
2653	26.520	-825.85126	-19.11600	-647.25616	746.66400	-14.81735	-640.39587	-742.74963	22.62922	490.00885	674.55750	30.14901	575.86078	-42.56528	705.79614	-992.96600	
2654	26.530	-826.56604	-20.46270	-647.57520	746.33643	-16.05466	-640.65045	-743.40295	23.32376	489.65793	673.86945	31.21551	575.52167	-43.36700	703.87140	-994.76031	
2655	26.540	-827.10547	-21.75033	-647.64325	745.59125	-17.39511	-640.76361	-743.94250	24.17981	489.22351	673.41510	32.31306	575.29224	-43.67412	702.05829	-996.25757	
2656	26.550	-827.60394	-22.89101	-647.88513	745.13257	-18.66819	-640.90942	-744.64862	25.27260	488.85370	672.94385	33.26584	574.92755	-44.51071	700.16211	-998.19745	
2657	26.560	-827.95111	-24.55279	-648.19910	744.60034	-19.65702	-641.15393	-745.01978	25.89478	488.68097	672.27716	34.21056	574.52124	-44.95992	698.14813	-999.57465	
2658	26.570	-828.61487	-25.37444	-648.48627	743.93616	-21.16217	-641.63165	-745.58258	26.75687	488.21695	671.65900	35.12886	574.14380	-45.40107	696.11926	-1001.36212	
2659	26.580	-828.81763	-27.07770	-648.69788	743.47717	-22.26493	-641.67786	-746.24200	27.49517	487.94672	671.32001	36.08575	573.82922	-45.72860	694.31592	-1002.64301	
2660	26.590	-829.19092	-28.13449	-649.04041	742.94122	-23.42791	-642.24146	-746.52911	28.10502	487.61383	670.93762	37.01443	573.52826	-46.34820	692.54803	-1004.44727	
2661	26.600	-829.57739	-29.24408	-649.29047	742.71680	-24.63341	-642.29022	-746.89337	29.20201	487.32620	670.52612	38.03790	573.24872	-46.74345	690.80811	-1005.67737	
2662	26.610	-830.20325	-30.14959	-649.45898	742.56250	-25.69237	-642.59576	-747.16803	29.95146	487.22171	670.18964	38.89323	572.87006	-46.87120	689.03687	-1007.13550	
2663	26.620	-830.29510	-31.56422	-649.58173	742.04510	-26.82107	-642.68622	-747.53845	30.54164	486.89194	669.98846	39.68682	572.67230	-47.17171	687.50861	-1008.57361	
2664	26.630	-830.39996	-32.62275	-649.92932	741.98370	-27.98146	-642.91101	-747.79297	31.34328	486.39841	669.78748	40.74152	572.26849	-47.13282	685.60785	-1009.88757	
2665	26.640	-830.80396	-33.64931	-650.02972	741.82013	-28.98708	-643.01086	-747.86743	32.08432	486.12653	669.61774	41.45833	572.03253	-47.72626	683.85309	-1011.17700	
2666	26.650	-830.95905	-34.78605	-650.19904	741.79590	-30.35132	-643.18634	-747.97241	32.81261	485.88458	669.52753	42.38314	571.62451	-47.72160	682.13379	-1012.39014	
2667	26.660	-830.88086	-35.98113	-650.33453	741.75842	-31.17717	-643.43011	-748.10370	33.56223	485.62204	669.33118	43.30783	571.42175	-47.93108	680.67584	-1013.42664	
2668	26.670	-831.19214	-36.81791	-650.54608	741.77545	-32.28263	-643.46527	-748.18640	34.22879	485.34183	669.21295	44.02410	571.13953	-47.77909	679.05573	-1015.07593	
2669	26.680	-831.15137	-37.61470	-650.75647	741.67792	-33.20113	-643.64301	-748.41504	35.01675	484.99548	669.15753	44.81534	570.73523	-47.87508	677.34106	-1016.11743	
2670	26.690	-830.93079	-39.25560	-650.80005	741.82428	-34.32701	-643.84589	-748.25873	35.56618	484.58554	669.26843	45.64095	570.44562	-47.82400	675.66205	-1017.43573	
2671	26.700	-831.00995	-39.82040	-651.18176	741.69873	-35.28550	-643.99927	-748.02771	36.07579	484.42856	669.18848	46.44258	570.19818	-47.61752	674.41766	-1018.74402	
2672	26.710	-831.08582	-40.84140	-651.17236	741.67291	-36.26424	-644.16455	-748.02667	36.74860	484.32132	669.08398	47.24999	569.74719	-47.99432	672.67743	-1020.09637	
2673	26.720	-830.89758	-41.98450	-651.38495	741.65295	-37.06017	-644.50208	-748.21442	37.56663	483.82175	669.15717	47.80173	569.53510	-47.64513	671.21259	-1021.17200	
2674	26.730	-830.58984	-42.80597	-651.58282	741.99341	-37.95417	-644.48285	-748.08258	38.09531	483.58102	669.29980	48.48357	569.31964	-47.64344	669.95343	-1022.43890	
2675	26.740	-830.65527	-43.39391	-651.66724	742.19769	-38.99701	-644.61548	-747.88068	38.68126	483.25052	669.62378	49.28120	569.14856	-47.60085	668.76416	-1023.62500	
2676	26.750	-830.54608	-44.45240	-651.54248	742.43231	-39.79747	-644.95746	-747.44415	39.10459	483.08585	670.10815	50.04997	568.85944	-47.24692	667.17151	-1024.77234	
2677	26.760	-829.95343	-45.40417	-651.95642	742.89404	-40.55981	-644.97803	-747.01160	39.69582	482.90497	670.57642	50.83700	569.27625	-46.50703	665.94312	-1025.92419	
2678	26.770	-829.60822	-46.03246	-652.08624	743.10333	-41.38589	-645.17908	-746.73572	40.29763	482.65692	670.95941	51.52063	568.93884	-46.16780	664.47998	-1026.86096	
2679	26.780	-829.13147	-47.01812	-652.22467	743.35474	-42.28521	-645.22687	-746.53839	40.88367	482.37177	671.23499	52.00387	568.72986	-45.86074	663.39032	-1027.98938	
2680	26.790	-829.04077	-47.51392	-652.41516	743.60779	-43.10605	-645.29663	-746.05334	41.46534	482.20490	671.55432	52.65865	568.36523	-45.61458	662.25537	-1028.82471	
2681	26.800	-828.51575	-48.61306	-652.43707	743.93311	-43.64716	-645.44080	-745.70856	41.75647	482.09280	671.97394	53.21374	568.14545	-45.46026	660.92780	-1030.16296	
2682	26.810	-828.19049	-49.29060	-652.44214	744.10559	-44.06760	-645.66565	-745.56781	42.15239	481.84671	672.29785	53.54907	567.94928	-45.20653	660.09473	-1030.95276	
2683	26.820	-827.98761	-49.59453	-652.47571	744.99591	-44.91365	-645.67651	-744.87280	42.61483	481.78061	672.76440	54.23400	567.65851	-44.50320	658.97217	-1031.91052	
2684	26.830	-827.37115	-50.24440	-652.74316	745.43317	-45.55492	-645.77216	-744.38110	42.94429	481.68799	673.12860	54.72108	567.53308	-44.00672	657.88147	-1032.84436	
2685	26.840	-826.77332	-51.03822	-652.83020	745.82629	-46.05493	-645.97620	-744.17145	43.43528	481.24432	673.62421	55.27618	567.33093	-43.41875	657.13647	-1033.73389	
